HIERARCHY
ROOT Hips
{
	OFFSET 0.000000 0.000000 0.000000 
	CHANNELS 6 Xposition Yposition Zposition Zrotation Yrotation Xrotation
	JOINT LeftUpLeg
	{
		OFFSET 1.363060 -1.794630 0.839290 
		CHANNELS 3 Zrotation Yrotation Xrotation
		JOINT LeftLeg
		{
			OFFSET 2.448110 -6.726130 0.000000 
			CHANNELS 3 Zrotation Yrotation Xrotation
			JOINT LeftFoot
			{
				OFFSET 2.562200 -7.039590 0.000000 
				CHANNELS 3 Zrotation Yrotation Xrotation
				JOINT LeftToeBase
				{
					OFFSET 0.157640 -0.433110 2.322550 
					CHANNELS 3 Zrotation Yrotation Xrotation
					End Site
					{
						OFFSET 0.000000 0.000000 0.000000 
					}
				}
			}
		}
	}
	JOINT RightUpLeg
	{
		OFFSET -1.305520 -1.794630 0.839290 
		CHANNELS 3 Zrotation Yrotation Xrotation
		JOINT RightLeg
		{
			OFFSET -2.542530 -6.985550 0.000000 
			CHANNELS 3 Zrotation Yrotation Xrotation
			JOINT RightFoot
			{
				OFFSET -2.568260 -7.056230 0.000000 
				CHANNELS 3 Zrotation Yrotation Xrotation
				JOINT RightToeBase
				{
					OFFSET -0.164730 -0.452590 2.363150 
					CHANNELS 3 Zrotation Yrotation Xrotation
					End Site
					{
						OFFSET 0.000000 0.000000 0.000000 
					}
				}
			}
		}
	}
	JOINT Spine
	{
		OFFSET 0.028270 2.035590 -0.193380 
		CHANNELS 3 Zrotation Yrotation Xrotation
		JOINT Spine1
		{
			OFFSET 0.056720 2.048850 -0.042750 
			CHANNELS 3 Zrotation Yrotation Xrotation
			JOINT Neck1
			{
				OFFSET -0.054170 1.746240 0.172020 
				CHANNELS 3 Zrotation Yrotation Xrotation
				JOINT Head
				{
					OFFSET 0.104070 1.761360 -0.123970 
					CHANNELS 3 Zrotation Yrotation Xrotation
					End Site
					{
						OFFSET 0.000000 0.000000 0.000000 
					}
				}
			}
			JOINT LeftArm
			{
				OFFSET 3.362410 1.200890 -0.311210 
				CHANNELS 3 Zrotation Yrotation Xrotation
				JOINT LeftForeArm
				{
					OFFSET 4.983000 -0.000000 -0.000000 
					CHANNELS 3 Zrotation Yrotation Xrotation
					JOINT LeftHand
					{
						OFFSET 3.483560 -0.000000 -0.000000 
						CHANNELS 3 Zrotation Yrotation Xrotation
						JOINT LeftHandIndex1
						{
							OFFSET 0.715260 -0.000000 -0.000000 
							CHANNELS 3 Zrotation Yrotation Xrotation
							End Site
							{
								OFFSET 0.000000 0.000000 0.000000 
							}
						}
					}
				}
			}
			JOINT RightArm
			{
				OFFSET -3.136600 1.374050 -0.404650 
				CHANNELS 3 Zrotation Yrotation Xrotation
				JOINT RightForeArm
				{
					OFFSET -5.241900 -0.000000 -0.000000 
					CHANNELS 3 Zrotation Yrotation Xrotation
					JOINT RightHand
					{
						OFFSET -3.444170 -0.000000 -0.000000 
						CHANNELS 3 Zrotation Yrotation Xrotation
						JOINT RightHandIndex1
						{
							OFFSET -0.622530 -0.000000 -0.000000 
							CHANNELS 3 Zrotation Yrotation Xrotation
							End Site
							{
								OFFSET 0.000000 0.000000 0.000000 
							}
						}
					}
				}
			}
		}
	}
}
MOTION
Frames: 13
Frame Time: 0.041667
-1.110691 17.933955 -1.176805 -19.059701 -80.988817 24.544430 -11.729557 -10.417211 -14.663619 0.757890 9.773451 28.922589 1.689807 -10.610234 -3.562745 1.050100 -6.516400 -18.290400 21.881596 -0.770637 -17.152684 -0.784623 -9.161576 27.132544 -0.594874 0.659699 -7.546960 -0.690600 5.312500 -14.802100 2.285140 3.771515 1.570457 -3.012494 1.863428 -3.141865 4.344293 -6.473531 17.497286 0.294100 -2.837300 2.552300 -56.604670 24.765953 -24.373278 160.791665 -24.084048 -116.537210 -0.097695 -0.232743 -1.239548 -7.125000 0.000000 0.000000 69.916223 2.721095 35.152173 -61.612112 52.758836 -36.704880 0.395769 0.333965 19.584429 7.125000 0.000000 0.000000 
-1.045474 17.904682 -1.153805 -19.645690 -80.769441 25.126214 -11.677496 -11.340022 -15.016089 1.086417 10.178263 30.263830 1.844291 -11.873179 -4.420894 1.308600 -7.246500 -20.447700 21.903517 -0.198658 -17.793423 -0.971359 -9.529321 28.224482 -0.546025 0.327632 -7.895683 -0.676500 5.259200 -14.649300 2.506627 3.597096 1.720099 -2.849720 1.775697 -3.166667 4.113223 -6.356235 17.200791 0.252700 -2.793200 2.456300 -57.171053 24.645062 -24.944886 160.870165 -23.991349 -116.564396 -0.090828 -0.228001 -1.336647 -7.125000 0.000000 0.000000 69.195538 3.354732 35.278319 -62.275839 52.922247 -37.291101 0.383430 0.343672 19.081605 7.125000 0.000000 0.000000 
-0.969602 17.867841 -1.128813 -20.095270 -80.659364 25.482910 -11.778135 -12.128645 -15.628369 1.535023 10.709520 32.081895 1.893394 -13.391664 -4.344960 1.325100 -7.290000 -20.577400 21.851553 0.431950 -18.544689 -1.241235 -10.007685 29.690317 -0.503940 -0.002924 -8.359260 -0.695400 5.330700 -14.854200 2.711369 3.402482 1.869129 -2.690187 1.678130 -3.323454 3.970991 -6.163180 16.881813 0.246500 -2.709700 2.349700 -57.688445 24.705660 -25.692019 161.009885 -23.828579 -116.614667 -0.078311 -0.223053 -1.561847 -7.125000 0.000000 0.000000 68.448031 4.161865 35.507711 -62.717563 53.023577 -37.674059 0.376016 0.353420 18.478437 7.125000 0.000000 0.000000 
-0.880588 17.821044 -1.098345 -20.939863 -80.707590 26.154045 -11.998071 -12.574703 -16.373870 1.977593 11.215425 33.891971 1.786757 -14.499794 -3.335424 1.176600 -6.884600 -19.373900 21.753857 1.123357 -19.290428 -1.548264 -10.512596 31.265854 -0.477061 -0.248766 -8.786349 -0.747600 5.522900 -15.406300 2.850522 3.382818 2.059766 -2.687005 1.667177 -3.509320 3.939478 -6.087015 16.333081 0.255400 -2.682500 2.153100 -57.867975 24.610749 -26.262728 161.161838 -23.660224 -116.668328 -0.048382 -0.221415 -1.883295 -7.125000 0.000000 0.000000 67.786761 5.050093 35.451505 -62.962376 53.072892 -37.880901 0.375049 0.361346 17.712285 7.125000 0.000000 0.000000 
-0.782512 17.758116 -1.060309 -24.290692 -80.881221 29.175661 -12.069436 -12.478494 -17.202269 2.441255 11.727739 35.779300 1.642732 -14.777619 -2.456982 1.059700 -6.545200 -18.374800 21.890109 2.021712 -20.034936 -1.940064 -11.118296 33.172054 -0.519697 -0.164393 -9.263752 -0.737000 5.484400 -15.295500 3.010184 3.545834 2.326720 -2.875233 1.734796 -3.671464 3.819424 -6.104965 15.750574 0.213600 -2.701200 1.953400 -57.789898 24.458377 -26.819454 161.336735 -23.471806 -116.729028 -0.009864 -0.221763 -2.414407 -7.125000 0.000000 0.000000 67.175221 6.003502 35.174398 -63.007004 53.070111 -37.907539 0.376488 0.366056 16.885334 7.125000 0.000000 0.000000 
-0.679160 17.670396 -1.022871 -29.588549 -81.135847 34.027738 -11.991080 -12.090664 -18.058886 2.893166 12.216497 37.595576 1.528454 -13.951630 -2.384913 0.769900 -5.602700 -15.636000 22.172144 3.108139 -20.842337 -2.438757 -11.824757 35.454037 -0.591729 0.141111 -9.549705 -0.696900 5.336200 -14.870000 3.210512 3.783033 2.621998 -3.047585 1.831653 -3.881974 3.654351 -6.073339 15.310620 0.154000 -2.692500 1.819400 -57.481687 24.486969 -27.712432 161.554888 -23.240464 -116.803686 0.034986 -0.216397 -3.433981 -7.125000 0.000000 0.000000 66.658325 6.977361 34.878302 -62.805522 53.007280 -37.704295 0.382850 0.373609 15.975556 7.125000 0.000000 0.000000 
-0.577301 17.570130 -0.987126 -35.435754 -81.428624 39.368503 -11.915927 -11.575067 -18.946094 3.315954 12.663301 39.247118 1.463094 -12.613928 -3.193642 0.602300 -4.968000 -13.817200 22.407709 4.097887 -21.832634 -3.063441 -12.617372 38.125473 -0.679340 0.602453 -9.659817 -0.773400 5.615100 -15.671700 3.385653 4.036890 2.941092 -3.168680 1.945077 -4.080343 3.675300 -5.968934 14.813204 0.171300 -2.647300 1.667100 -56.802588 24.616528 -28.921992 161.735840 -23.066864 -116.862065 0.085489 -0.203243 -4.826277 -7.125000 0.000000 0.000000 66.322742 7.927463 34.550575 -62.396102 52.891833 -37.310554 0.393423 0.381838 14.953566 7.125000 0.000000 0.000000 
-0.480619 17.458513 -0.951381 -43.009608 -81.809779 46.463353 -11.872225 -10.745002 -19.844124 3.744653 13.042210 40.739488 1.499481 -13.526762 -3.392648 0.214100 -2.978900 -8.220100 22.625718 5.020270 -23.090482 -3.818998 -13.483178 41.166059 -0.843386 1.385517 -10.032547 -0.894800 6.029200 -16.869200 3.509730 4.393512 3.261818 -3.331666 2.117802 -4.227624 3.738473 -5.877310 14.200954 0.203900 -2.610400 1.464200 -55.756161 24.825020 -30.251404 161.837449 -23.003529 -116.888944 0.140556 -0.189653 -6.369884 -7.125000 0.000000 0.000000 66.185739 8.799166 34.162781 -61.797623 52.725216 -36.746484 0.403665 0.387559 13.896503 7.125000 0.000000 0.000000 
-0.385730 17.334351 -0.913844 -50.553691 -82.355429 53.740901 -12.183534 -9.754377 -20.792406 4.164930 13.420311 42.191054 1.592914 -13.920235 -4.677118 0.173900 -2.686300 -7.406500 22.450054 5.917770 -24.748135 -4.677216 -14.372101 44.439794 -0.912521 1.897946 -9.915481 -1.422400 7.542100 -21.331700 3.513313 4.829203 3.481952 -3.502775 2.334026 -4.407426 3.645441 -5.849461 13.572476 0.170500 -2.606400 1.238600 -54.311964 25.087539 -31.629733 161.891266 -23.008993 -116.895984 0.194744 -0.163061 -8.248731 -7.125000 0.000000 0.000000 66.290937 9.419484 33.594646 -61.003889 52.505306 -36.020091 0.419257 0.387261 12.808371 7.125000 0.000000 0.000000 
-0.293728 17.209989 -0.875410 -55.217239 -83.147143 58.375548 -13.032507 -8.974770 -21.884448 4.589122 13.807349 43.686751 1.678383 -13.922538 -6.300389 0.186400 -2.780800 -7.669100 21.582576 6.598766 -26.768360 -5.614095 -15.230442 47.773147 -1.136390 3.228707 -9.929487 -1.412900 7.517800 -21.258900 3.375358 5.172041 3.598399 -3.560993 2.510800 -4.592214 3.551691 -5.799916 13.005819 0.146200 -2.591600 1.023900 -52.535179 25.281114 -33.119751 161.845593 -23.140961 -116.866961 0.230405 -0.119360 -10.427842 -7.125000 0.000000 0.000000 66.692759 9.820248 32.882193 -59.698599 52.137468 -34.857897 0.447191 0.374542 11.834851 7.125000 0.000000 0.000000 
-0.202623 17.092697 -0.843946 -59.815140 -83.900006 63.097774 -13.883751 -8.420079 -23.177910 5.005533 14.186136 45.165430 1.734559 -13.628303 -7.735378 0.224700 -3.051500 -8.422100 20.618273 7.166235 -28.929412 -6.569713 -16.015672 51.009242 -1.384178 4.681984 -10.192144 -1.456900 7.629100 -21.593200 3.233742 5.409170 3.646743 -3.492471 2.639492 -4.784146 3.448306 -5.640399 12.577905 0.139400 -2.521000 0.854500 -50.802510 25.445292 -34.656383 161.693934 -23.405408 -116.798204 0.254263 -0.074291 -12.445892 -7.125000 0.000000 0.000000 67.394603 10.006923 32.261409 -57.892208 51.606420 -33.252374 0.478815 0.363307 11.242344 7.125000 0.000000 0.000000 
-0.110223 16.979388 -0.812383 -62.528393 -84.423862 66.022023 -14.582406 -8.310748 -24.450308 5.390455 14.528923 46.534291 1.752628 -13.144752 -8.847947 0.303300 -3.541100 -9.789200 19.702237 7.467179 -31.085248 -7.503319 -16.701069 54.009798 -1.722981 6.538745 -10.941450 -1.553200 7.865800 -22.307400 3.131589 5.526515 3.675864 -3.440408 2.705929 -4.908751 3.286336 -5.501314 12.183101 0.132300 -2.461800 0.702200 -49.280540 25.388808 -36.038567 161.521259 -23.691781 -116.717006 0.275543 -0.020958 -14.367588 -7.125000 0.000000 0.000000 68.278616 9.710658 31.479573 -56.109195 51.056540 -31.682403 0.508623 0.358539 11.019387 7.125000 0.000000 0.000000 
-0.025987 16.878027 -0.778330 -60.928907 -85.101203 64.239832 -15.520201 -8.333892 -25.129057 5.729381 14.801413 47.728579 1.757591 -12.966944 -9.657237 0.326600 -3.673200 -10.159100 18.530513 7.311029 -32.610144 -8.396061 -17.283329 56.721931 -2.132969 8.541741 -12.267628 -1.846100 8.537900 -24.360100 3.035017 5.639067 3.849257 -3.381575 2.761065 -4.992781 3.093762 -5.535452 11.721174 0.133300 -2.491400 0.532700 -47.923726 24.820382 -37.081151 161.317190 -23.994169 -116.626840 0.276533 0.035560 -16.199454 -7.125000 0.000000 0.000000 69.127261 8.924463 30.153777 -54.220583 50.445285 -30.054332 0.554172 0.359841 11.296039 7.125000 0.000000 0.000000 
